# xmcd
#
# Track frame offsets:
#	150
#	16267
#	31585
#	45082
#	60635
#	74257
#	88247
#	103800
#	118227
#	133595
#	162217
#	175245
#	188912
#	202450
#	216005
#	229180
#	241095
#	254335
#
# Disc length: 3569 seconds
#
# Revision: 0
# Processed by: cddbd v1.4PL0 Copyright (c) Steve Scherf et al.
# Submitted via: EasyCDDAExtractor 4.6.9.1
#
DISCID=fa0def12
DTITLE=Bessie Smith - The Masters
DYEAR=1998
DGENRE=Blues
TTITLE0=Gimme A Pigfoot (and a bottle of beer)
TTITLE1=Down Hearted Blues
TTITLE2=The Yellow Dog Blues
TTITLE3=Careless Love Blues
TTITLE4=A Good Man Is Hard To Find
TTITLE5=St. Louis Blues
TTITLE6=Do Your Duty
TTITLE7=Cold In Hand Blues
TTITLE8=Send Me To The 'Lectric Chair
TTITLE9=Empty Bed Blues
TTITLE10=Nobody's Blues But Mine
TTITLE11=Alexander's Ragtime Band
TTITLE12=Them's Graveyard Words
TTITLE13=New Orleans Hop Scop Blues
TTITLE14=One and Two Blues
TTITLE15=Take Me For A Buggy Ride
TTITLE16=Squeeze Me
TTITLE17=Nobody Knows You When You're Down And Out
EXTD=
EXTT0=
EXTT1=
EXTT2=
EXTT3=
EXTT4=
EXTT5=
EXTT6=
EXTT7=
EXTT8=
EXTT9=
EXTT10=
EXTT11=
EXTT12=
EXTT13=
EXTT14=
EXTT15=
EXTT16=
EXTT17=
PLAYORDER=
